<svg id="Слой_1" data-name="Слой 1" xmlns="http://www.w3.org/2000/svg" viewBox="0 0 100 150"><defs><style>.cls-1{fill:#9480a3;}.cls-2{fill:#fff;}</style></defs><path class="cls-1" d="M97,50.81c0,26.47-47,96.31-47,96.31S3,77.28,3,50.81,24,2.88,50,2.88,97,24.34,97,50.81Z"/><path class="cls-2" d="M68.25,68V36.22a1.14,1.14,0,0,0-1.13-1.13h-8.7a1.14,1.14,0,0,0-1.13,1.13V65.05H42V36.22a1.14,1.14,0,0,0-1.13-1.13h-8.7A1.14,1.14,0,0,0,31,36.22V73.08a1.83,1.83,0,0,0,1.83,1.83H60.21l6.58,6.93a1.74,1.74,0,0,0,2.55,0l5.11-4.74a1.77,1.77,0,0,0,0-2.56Z"/></svg>