<svg id="Слой_1" data-name="Слой 1" xmlns="http://www.w3.org/2000/svg" viewBox="0 0 100 100"><defs><style>.cls-1{fill:#3f3754;}.cls-2{fill:#cac664;}</style></defs><circle class="cls-1" cx="50" cy="50" r="49"/><path class="cls-2" d="M63.6,33.48a3,3,0,1,0,3,3A3,3,0,0,0,63.6,33.48Z"/><path class="cls-2" d="M50.21,37.35A12.65,12.65,0,1,0,62.87,50,12.66,12.66,0,0,0,50.21,37.35Zm0,20.76A8.11,8.11,0,1,1,58.32,50,8.12,8.12,0,0,1,50.21,58.11Z"/><path class="cls-2" d="M60.26,75.69H39.74A15.45,15.45,0,0,1,24.31,60.26V39.74A15.45,15.45,0,0,1,39.74,24.31H60.26A15.45,15.45,0,0,1,75.69,39.74V60.26A15.45,15.45,0,0,1,60.26,75.69ZM39.74,29.14a10.62,10.62,0,0,0-10.6,10.6V60.26a10.62,10.62,0,0,0,10.6,10.6H60.26a10.62,10.62,0,0,0,10.6-10.6V39.74a10.62,10.62,0,0,0-10.6-10.6Z"/></svg>