<svg id="Слой_1" data-name="Слой 1" xmlns="http://www.w3.org/2000/svg" viewBox="0 0 100 100"><defs><style>.cls-1{fill:#3f3754;}.cls-2{fill:#cac664;}</style></defs><circle class="cls-1" cx="50" cy="50" r="49"/><path class="cls-2" d="M24.07,47.33s22.11-9.07,29.78-12.27c2.94-1.28,12.91-5.37,12.91-5.37s4.6-1.79,4.22,2.56c-.13,1.79-1.15,8-2.18,14.83-1.53,9.58-3.19,20.07-3.19,20.07s-.26,2.94-2.43,3.45-5.75-1.79-6.39-2.3-9.59-6.14-12.91-8.95c-.9-.77-1.92-2.3.13-4.09C48.61,51,54.1,45.8,57.43,42.48c1.53-1.54,3.07-5.12-3.33-.77-9.07,6.26-18,12.14-18,12.14s-2,1.28-5.88.13-8.31-2.68-8.31-2.68-3.07-1.92,2.18-4Z"/></svg>