<svg id="Слой_1" data-name="Слой 1" xmlns="http://www.w3.org/2000/svg" xmlns:xlink="http://www.w3.org/1999/xlink" viewBox="0 0 100 100"><defs><style>.cls-1{fill:#3f3754;}.cls-2{fill:url(#Degradado_sin_nombre_8);}.cls-3{fill-rule:evenodd;fill:url(#Degradado_sin_nombre_8-2);}</style><linearGradient id="Degradado_sin_nombre_8" x1="67.09" y1="74.04" x2="30.29" y2="37.24" gradientUnits="userSpaceOnUse"><stop offset="0" stop-color="#00fb73"/><stop offset="1" stop-color="#00b25b"/></linearGradient><linearGradient id="Degradado_sin_nombre_8-2" x1="69.96" y1="71.17" x2="33.16" y2="34.37" xlink:href="#Degradado_sin_nombre_8"/></defs><circle class="cls-1" cx="50" cy="50" r="49"/><path class="cls-2" d="M24.92,75.6l3.67-13.69a25.34,25.34,0,1,1,10.1,10Zm14.46-8.82.86.52a20.59,20.59,0,1,0-7-7l.53.88-2,7.64Z"/><path class="cls-3" d="M60.12,53.21c-1-.63-2.39-1.32-3.62-.82-.94.38-1.54,1.86-2.15,2.61a.89.89,0,0,1-1.17.25,16.32,16.32,0,0,1-8.18-7,1,1,0,0,1,.12-1.37,5.56,5.56,0,0,0,1.49-2.42A5.36,5.36,0,0,0,46,41.59c-.5-1.06-1.05-2.57-2.12-3.18a2.88,2.88,0,0,0-3.13.47,6.35,6.35,0,0,0-2.21,5,7.14,7.14,0,0,0,.19,1.6,13.65,13.65,0,0,0,1.54,3.55,27.77,27.77,0,0,0,1.61,2.44,24.93,24.93,0,0,0,7,6.46A21,21,0,0,0,53.13,60c1.7.57,3.21,1.15,5,.8a6.09,6.09,0,0,0,4.58-3.41A3,3,0,0,0,63,55.7C62.71,54.5,61.09,53.78,60.12,53.21Z"/></svg>